<svg width="19" height="19" viewBox="0 0 19 19" fill="none" xmlns="http://www.w3.org/2000/svg">
<circle cx="9.5" cy="9.5" r="9.5" fill="#57E065"/>
<path d="M12.7351 8.82053V7.72148C12.7355 6.96503 12.3742 6.27884 11.8007 5.79008C11.2276 5.29998 10.4385 5 9.5731 5C8.70755 5 7.91843 5.29998 7.34528 5.79008C6.77176 6.27884 6.41052 6.96503 6.41089 7.72148V8.82053H5.51562V12.5871C5.51562 13.1791 6.0526 13.6634 6.709 13.6634H12.4368C13.0932 13.6634 13.6302 13.1791 13.6302 12.5871V8.82053H12.7351ZM9.87121 11.3286V12.0489H9.27461V11.3286C9.09704 11.2354 8.97632 11.0637 8.97632 10.8651C8.97632 10.5678 9.24342 10.3271 9.57291 10.3271C9.90259 10.3271 10.1695 10.568 10.1695 10.8651C10.1697 11.0637 10.049 11.2354 9.87121 11.3286ZM11.8999 8.82053H7.24597V7.72148C7.24634 7.18295 7.4996 6.69668 7.91954 6.33694C8.33967 5.97819 8.92279 5.75345 9.57291 5.75345C10.223 5.75345 10.8063 5.97819 11.2263 6.33694C11.6462 6.69685 11.8995 7.18311 11.8999 7.72148V8.82053Z" fill="white"/>
</svg>
