<svg width="50" height="50" viewBox="0 0 50 50" fill="none" xmlns="http://www.w3.org/2000/svg">
<path d="M41.8908 42.908C37.3957 47.403 32.492 47.3213 27.7517 44.706C26.3623 43.8887 25.0547 42.908 23.9104 41.7638L7.15621 24.9277C5.76679 23.5383 4.54086 21.9037 3.72361 20.1874C1.76212 16.0193 1.84382 11.6876 5.43991 7.76465L4.37737 8.82718C0.209218 12.9953 -0.0359678 17.4904 2.00721 21.9037C2.82447 23.7017 4.0504 25.2546 5.43981 26.6439L22.1942 43.48C23.3385 44.6243 24.5644 45.605 26.0355 46.4223C30.7757 49.0376 35.6794 49.1193 40.1745 44.6243L42.2177 42.5811C42.2993 42.4994 42.3811 42.4176 42.4628 42.3359L41.8908 42.908Z" fill="white"/>
<path d="M32.6553 40.0462H32.5736C26.9343 39.4742 23.2565 35.8781 23.1748 35.7146C22.848 35.3877 22.848 34.8973 23.1748 34.5704C23.5017 34.2435 23.9921 34.2435 24.3191 34.5704C24.3191 34.5704 27.7517 37.9213 32.7371 38.4116C33.1458 38.4933 33.4726 38.8203 33.4726 39.3107C33.3909 39.7193 33.0639 40.0462 32.6553 40.0462Z" fill="#EB4745"/>
<path d="M14.7579 26.9703C14.5944 26.9703 14.431 26.8886 14.2675 26.8068C14.104 26.6433 9.60899 22.9655 9.03692 17.2446C8.95523 16.8359 9.28211 16.4273 9.77248 16.3455C10.2629 16.2638 10.5897 16.5907 10.6715 17.0811C11.1619 22.0665 15.3301 25.4991 15.3301 25.4991C15.6569 25.7443 15.7387 26.3163 15.4117 26.6433C15.1665 26.8886 15.0031 26.9703 14.7579 26.9703Z" fill="#EB4745"/>
<path d="M32.4105 49.0361C30.2855 49.0361 27.9972 48.3822 25.7088 47.0746C24.3194 46.339 23.0118 45.2766 21.7041 43.9689L4.94973 27.2146C3.39692 25.6618 2.17099 23.9455 1.35364 22.2292C-1.09822 16.9985 -0.199173 12.2582 3.88719 8.17178L5.93047 6.1286C7.1564 4.90267 9.11788 4.57579 10.6707 5.39304C13.7764 7.02764 17.1272 12.7486 17.2907 12.9938C17.8628 14.0562 18.108 15.1188 17.8628 16.0177C17.6993 16.6716 17.2089 17.2436 16.6368 17.6523C15.6561 18.4696 14.5119 19.5321 14.2667 19.7773C12.9591 21.7388 13.1225 23.2099 14.7571 24.9262L24.0741 34.3249C25.7087 35.9595 27.2615 36.1229 29.223 34.8153C29.4682 34.6518 30.5306 33.5077 31.348 32.4452C31.7567 31.7913 32.3287 31.3827 32.9826 31.2192C33.8816 30.974 35.0258 31.1375 36.0065 31.7096C36.2517 31.8731 41.9727 35.2239 43.6073 38.3296C44.4245 39.8824 44.1793 41.8439 42.8717 43.0698L40.8285 45.1948C38.295 47.7285 35.4344 49.0361 32.4105 49.0361ZM22.8483 42.9064C23.9925 44.0507 25.2184 45.0314 26.4444 45.6852C31.4298 48.4639 35.7614 47.8918 39.6027 44.0506L41.6459 42.0074C42.3814 41.2718 42.5449 40.1276 42.0545 39.2287C40.6651 36.5316 35.1076 33.2625 35.1076 33.2625C34.4538 32.9356 33.8 32.7721 33.3097 32.8538C32.9828 32.9355 32.8193 33.099 32.6558 33.4259V33.5076C32.0837 34.2432 30.6943 35.8778 30.1222 36.2046C27.5069 37.9209 25.1368 37.6758 22.9302 35.4691L13.5314 26.0703C11.3247 23.8637 11.0796 21.4118 12.7959 18.8782C13.1227 18.3879 14.839 16.9985 15.4929 16.3447L15.5746 16.263C15.9015 16.0995 16.065 15.8543 16.1467 15.6091C16.3102 15.1188 16.1467 14.4649 15.738 13.8111C15.738 13.7294 12.4689 8.25357 9.77184 6.86425C8.95458 6.37388 7.81035 6.53737 7.07479 7.27292L5.03142 9.31601C1.43533 12.9121 0.699777 16.9168 2.82475 21.4936C3.56031 23.0464 4.62275 24.5993 6.09386 26.0704L22.8483 42.9064Z" fill="#EB4745"/>
<path d="M40.828 19.6155C40.3376 19.6155 40.0107 19.2886 40.0107 18.7982V16.3464H35.9243C35.5974 16.3464 35.3522 16.1829 35.1887 15.856C35.0252 15.6108 35.107 15.284 35.2704 15.0388L40.1741 8.50045C40.4193 8.25526 40.7462 8.09177 41.0732 8.25526C41.4001 8.33696 41.6452 8.66394 41.6452 8.99082V14.7118H42.4625C42.9529 14.7118 43.2797 15.0387 43.2797 15.529C43.2797 16.0194 42.9529 16.3463 42.4625 16.3463H41.6452V18.7982C41.6452 19.2886 41.3184 19.6155 40.828 19.6155ZM37.5589 14.7118H40.0107V11.4427L37.5589 14.7118Z" fill="#EB4745"/>
<path d="M34.29 19.6149H28.2421C27.67 19.6149 27.1797 19.288 27.0162 18.7976C26.8527 18.3073 26.9345 17.7352 27.4248 17.3265L32.3286 13.0767C32.9824 12.4228 32.9824 11.5238 32.7372 10.9517C32.4104 10.2161 31.8382 9.80745 31.0209 9.80745C29.6315 9.80745 28.5691 10.8699 28.5691 12.2593C28.5691 12.7497 28.2422 13.0766 27.7518 13.0766C27.2615 13.0766 26.9346 12.7497 26.9346 12.2593C26.9346 9.97094 28.7326 8.17285 31.021 8.17285H31.1027C32.4921 8.17285 33.7181 8.99011 34.2084 10.3795C34.7805 11.7689 34.4536 13.2401 33.3912 14.3025L29.1413 17.9803H34.2902C34.7806 17.9803 35.1075 18.3072 35.1075 18.7975C35.1074 19.288 34.7804 19.6149 34.29 19.6149Z" fill="#EB4745"/>
<path d="M22.0305 27.7877C21.7853 27.7877 21.6218 27.706 21.4584 27.5425C21.2133 27.379 21.1316 27.0521 21.2133 26.7252L22.7661 20.1869C21.7036 18.3071 21.2133 16.1005 21.2133 13.8938C21.2133 6.21134 27.4246 0 35.1071 0C42.7897 0 49.001 6.21134 49.001 13.8939C49.001 21.5764 42.7896 27.7877 35.1071 27.7877C32.737 27.7877 30.3669 27.1338 28.3236 25.9897L22.2757 27.7877C22.194 27.7877 22.1123 27.7877 22.0305 27.7877ZM28.4053 24.2734C28.5688 24.2734 28.7322 24.2734 28.814 24.3551C30.6938 25.4993 32.9005 26.0714 35.1071 26.0714C41.8906 26.0714 47.3664 20.5956 47.3664 13.8121C47.3664 7.02859 41.8906 1.63451 35.1071 1.63451C28.3236 1.63451 22.8479 7.11029 22.8479 13.8938C22.8479 15.937 23.3382 17.9802 24.319 19.7782C24.4007 19.9417 24.4825 20.1869 24.4007 20.3503L23.093 25.8261L28.1602 24.355C28.2419 24.3551 28.3236 24.2734 28.4053 24.2734Z" fill="#EB4745"/>
</svg>
