<svg width="24" height="25" viewBox="0 0 24 25" fill="none" xmlns="http://www.w3.org/2000/svg">
<path opacity="0.8" fill-rule="evenodd" clip-rule="evenodd" d="M11.7341 24.4268C18.1631 24.4268 23.3749 19.1681 23.3749 12.6812C23.3749 6.19424 18.1631 0.935547 11.7341 0.935547C5.30509 0.935547 0.093338 6.19424 0.093338 12.6812C0.093338 19.1681 5.30509 24.4268 11.7341 24.4268ZM10.3181 16.6183L15.9747 13.3066C16.0839 13.2437 16.1747 13.1528 16.2378 13.0431C16.301 12.9334 16.3342 12.8088 16.3342 12.6819C16.3342 12.555 16.301 12.4304 16.2378 12.3207C16.1747 12.2109 16.0839 12.12 15.9747 12.0571L10.3181 8.74542C9.83715 8.46377 9.22197 8.80463 9.22197 9.36973V15.9931C9.22197 16.5591 9.83804 16.8991 10.3181 16.6183Z" fill="white"/>
</svg>
