<svg width="17" height="17" viewBox="0 0 17 17" fill="none" xmlns="http://www.w3.org/2000/svg">
<path d="M15.6168 0.0556641H1.38245C0.895019 0.0559082 0.499877 0.451294 0.499999 0.938843V15.1732C0.500243 15.6606 0.895629 16.0558 1.38318 16.0557H15.6168C16.1045 16.0558 16.4999 15.6605 16.5 15.1729C16.5 15.1727 16.5 15.1726 16.5 15.1725V0.93811C16.4998 0.450684 16.1044 0.055542 15.6168 0.0556641Z" fill="#4267B2"/>
<path d="M11.5469 16.0558V9.86829H13.6328L13.9453 7.44641H11.5469V5.90393C11.5469 5.20435 11.7411 4.72766 12.7443 4.72766H14.0156V2.56738C13.7944 2.53796 13.0355 2.47217 12.1525 2.47217C10.3087 2.47217 9.04688 3.59717 9.04688 5.66406V7.44641H6.96875V9.86829H9.04688V16.0558H11.5469Z" fill="white"/>
</svg>
