<svg width="17" height="17" viewBox="0 0 17 17" fill="none" xmlns="http://www.w3.org/2000/svg">
<path d="M16.2197 3.80081V12.3008C16.2197 14.3716 14.5405 16.0508 12.4697 16.0508H3.96975C1.89891 16.0508 0.219727 14.3722 0.219727 12.3008V3.80081C0.219727 1.72997 1.89891 0.0507812 3.96975 0.0507812H12.4697C14.5411 0.0507812 16.2197 1.72997 16.2197 3.80081Z" fill="url(#paint0_linear)"/>
<path d="M10.6892 2.19336H5.72892C3.85817 2.19336 2.34213 3.7094 2.34213 5.58015V10.5404C2.34213 12.4111 3.85817 13.9272 5.72892 13.9272H10.6892C12.5593 13.9272 14.076 12.4111 14.076 10.5404V5.58015C14.076 3.7094 12.5599 2.19336 10.6892 2.19336ZM12.9953 10.6274C12.9953 11.8688 11.9886 12.8756 10.7471 12.8756H5.67094C4.42946 12.8756 3.42275 11.8688 3.42275 10.6274V5.55116C3.42275 4.30911 4.42946 3.30296 5.67094 3.30296H10.7471C11.9886 3.30296 12.9953 4.30911 12.9953 5.55116V10.6274Z" fill="white"/>
<path d="M8.20963 5.04443C6.52817 5.04443 5.16504 6.40756 5.16504 8.08902C5.16504 9.77048 6.52817 11.1336 8.20963 11.1336C9.89108 11.1336 11.2542 9.77048 11.2542 8.08902C11.2542 6.40756 9.89108 5.04443 8.20963 5.04443ZM8.20963 10.0627C7.11992 10.0627 6.23599 9.1793 6.23599 8.08902C6.23599 6.99874 7.11935 6.11538 8.20963 6.11538C9.2999 6.11538 10.1833 6.99874 10.1833 8.08902C10.1833 9.1793 9.2999 10.0627 8.20963 10.0627Z" fill="white"/>
<path d="M11.3562 4.21973C10.9646 4.21973 10.6468 4.53749 10.6468 4.92914C10.6468 5.3208 10.9646 5.63856 11.3562 5.63856C11.7479 5.63856 12.0657 5.32137 12.0657 4.92914C12.0657 4.53749 11.7479 4.21973 11.3562 4.21973Z" fill="white"/>
<defs>
<linearGradient id="paint0_linear" x1="12.1482" y1="0.989834" x2="4.04383" y2="15.5571" gradientUnits="userSpaceOnUse">
<stop stop-color="#4845A2"/>
<stop offset="0.189" stop-color="#8744A1"/>
<stop offset="0.3002" stop-color="#A844A1"/>
<stop offset="0.3509" stop-color="#AB429A"/>
<stop offset="0.423" stop-color="#B43C88"/>
<stop offset="0.5078" stop-color="#C33269"/>
<stop offset="0.6017" stop-color="#D7243F"/>
<stop offset="0.6036" stop-color="#D7243E"/>
<stop offset="0.8766" stop-color="#F9A326"/>
<stop offset="1" stop-color="#F9DD26"/>
</linearGradient>
</defs>
</svg>
